<?xml version="1.0" encoding="utf-8"?>
<!-- Generator: Adobe Illustrator 18.0.0, SVG Export Plug-In . SVG Version: 6.00 Build 0)  -->
<!DOCTYPE svg PUBLIC "-//W3C//DTD SVG 1.1//EN" "http://www.w3.org/Graphics/SVG/1.1/DTD/svg11.dtd">
<svg version="1.1" id="Слой_1" xmlns="http://www.w3.org/2000/svg" xmlns:xlink="http://www.w3.org/1999/xlink" x="0px" y="0px"
	 viewBox="91 0 700 412.9" enable-background="new 91 0 700 412.9" xml:space="preserve">
<g enable-background="new    ">
	<path fill="none" d=""/>
	<g id="_1685270390704">
		<polygon fill="#AC8C59" points="587.9,364.1 536.7,364.1 553.4,354.9 553.4,321 587.9,321 577.6,342.2 		"/>
		<polygon fill="#AC8C59" points="297.4,364.1 348.5,364.1 332.2,354.9 332.2,321 297.4,321 307.7,342.2 		"/>
		<polygon fill="#AC8C59" points="550.3,354.1 334.8,354.1 334.8,311 550.3,311 		"/>
		<path fill="#FFFFFF" d="M365.4,333c0-4.9,1.3-8.7,3.9-11.5c2.7-2.8,6.1-4.2,10.2-4.2c2.7,0,5.2,0.7,7.4,2c2.2,1.3,3.9,3.1,5,5.4
			c1.2,2.4,1.7,5,1.7,7.9c0,3-0.6,5.7-1.8,8.1c-1.2,2.4-2.9,4.2-5.2,5.4c-2.2,1.2-4.6,1.8-7.2,1.8c-2.8,0-5.3-0.7-7.5-2
			c-2.2-1.3-3.9-3.2-5-5.5C366,338,365.4,335.6,365.4,333z M369.5,333c0,3.6,0.9,6.4,2.9,8.4c1.9,2,4.3,3.1,7.2,3.1
			c2.9,0,5.4-1,7.3-3.1c1.9-2.1,2.8-5,2.8-8.8c0-2.4-0.4-4.5-1.2-6.3c-0.8-1.8-2-3.2-3.6-4.2c-1.6-1-3.3-1.5-5.3-1.5
			c-2.8,0-5.2,1-7.2,2.9C370.5,325.4,369.5,328.6,369.5,333z M410.9,347.4v-26.1h-9.8v-3.5h23.4v3.5h-9.8v26.1H410.9z M433.4,347.4
			v-29.6h21.4v3.5h-17.5v9.1h16.3v3.5h-16.3v10.1h18.2v3.5H433.4z M467.7,317.8h18.5v29.6h-3.9v-26.1h-10.6v15.3
			c0,3.1-0.1,5.4-0.4,6.8c-0.3,1.4-0.9,2.6-1.8,3.4c-0.9,0.8-2.1,1.2-3.5,1.2c-0.9,0-1.9-0.2-3.1-0.5l0.7-3.5
			c0.6,0.3,1.2,0.5,1.6,0.5c0.9,0,1.5-0.3,2-1c0.5-0.7,0.7-2.2,0.7-4.7V317.8z M497.4,317.8h3.9v12.6h7.1c3.3,0,5.7,0.4,7.1,1.2
			c1.5,0.8,2.6,1.8,3.2,3.1c0.6,1.3,1,2.7,1,4.1c0,2.3-0.8,4.3-2.4,6c-1.6,1.7-4.5,2.6-8.7,2.6h-11.3V317.8z M501.3,344h7.1
			c2.9,0,4.8-0.5,5.7-1.6c0.9-1,1.3-2.3,1.3-3.7c0-1.2-0.3-2.2-1-3c-0.6-0.9-1.5-1.4-2.6-1.6c-1-0.3-2.9-0.4-5.4-0.4h-5.2V344z"/>
	</g>
	<polyline fill="none" stroke="#FFFFFF" stroke-width="100" points="289.6,342.8 143.8,342.8 143.8,178.4 741.4,178.4 741.4,342.8 
		597.4,342.8 	"/>
</g>
</svg>
