<?xml version="1.0" encoding="UTF-8"?>
<!DOCTYPE svg PUBLIC "-//W3C//DTD SVG 1.1//EN" "http://www.w3.org/Graphics/SVG/1.1/DTD/svg11.dtd">
<!-- Creator: CorelDRAW X7 -->
<svg xmlns="http://www.w3.org/2000/svg" xml:space="preserve" width="297mm" height="210mm" version="1.1" style="shape-rendering:geometricPrecision; text-rendering:geometricPrecision; image-rendering:optimizeQuality; fill-rule:evenodd; clip-rule:evenodd"
viewBox="0 0 29700 21000"
 xmlns:xlink="http://www.w3.org/1999/xlink">
 <defs>
  <style type="text/css">
   <![CDATA[
    .str2 {stroke:white;stroke-width:52.92}
    .str1 {stroke:white;stroke-width:17.64}
    .str0 {stroke:white;stroke-width:7.62}
    .fil0 {fill:white}
    .fil1 {fill:white;fill-rule:nonzero}
   ]]>
  </style>
 </defs>
 <g id="Слой_x0020_1">
  <metadata id="CorelCorpID_0Corel-Layer"/>
  <path class="fil0 str0" d="M9450 16642c1452,1043 5794,2038 6829,2200 5900,922 10192,-630 10346,-7322 79,-3422 13,-5235 1754,-7247 -1612,365 -3145,2615 -3797,4153 -1532,3491 -1682,7555 -7604,8663 -3371,365 -4637,333 -7528,-447z"/>
  <path class="fil0 str0" d="M7501 15738c3565,1697 11955,2550 14744,-2161 354,-597 1304,-2680 1438,-3391 93,-491 -586,-1210 -868,-1509 -1551,-1645 -5063,-4302 -7452,-4758 685,733 2412,1460 4022,3696 1161,1611 1868,3863 425,5668 -2268,2837 -8802,3148 -12309,2455z"/>
  <path class="fil0 str1" d="M23420 3686c858,0 1554,696 1554,1554 0,859 -696,1555 -1554,1555 -859,0 -1555,-696 -1555,-1555 0,-858 696,-1554 1555,-1554z"/>
  <path class="fil0 str1" d="M2177 8761l219 708 712 -2 -577 436 221 708 -575 -439 -574 439 221 -708 -577 -436 712 2 218 -708zm1303 -2953l192 625 628 -1 -508 384 195 624 -507 -387 -508 387 195 -624 -508 -384 628 1 193 -625zm2460 -1912l176 573 576 -2 -466 353 179 572 -465 -354 -466 354 179 -572 -466 -353 576 2 177 -573zm2724 -1020l133 429 431 -1 -349 264 134 429 -349 -266 -348 266 134 -429 -350 -264 432 1 132 -429zm2723 -278l107 347 349 -1 -283 214 109 347 -282 -215 -282 215 108 -347 -283 -214 350 1 107 -347zm2342 257l107 347 349 -1 -282 214 108 347 -282 -215 -282 215 109 -347 -283 -214 349 1 107 -347z"/>
  <path class="fil1 str2" d="M10428 8910c30,0 77,-3 107,29 30,29 26,73 26,105l0 1763 440 0 0 -1929c0,-76 -13,-156 -83,-223 -80,-76 -170,-80 -263,-80l-1380 0c-107,0 -180,4 -264,80 -76,70 -86,144 -86,223l0 1929 440 0 0 -1763c0,-38 6,-83 30,-105 30,-32 70,-29 106,-29l927 0zm813 1897l463 0 237 -565 1123 0 240 565 464 0 -880 -2005c-84,-188 -184,-252 -384,-252 -210,0 -300,64 -383,252l-880 2005zm1197 -1773c13,-31 36,-92 66,-92 30,0 54,61 67,92l380 909 -897 0 384 -909zm2009 1773l0 -791 1094 0c136,0 270,-41 356,-108 184,-144 204,-430 204,-612 0,-188 -17,-440 -177,-587 -143,-134 -340,-134 -463,-134l-1110 0c-80,0 -187,13 -264,87 -80,76 -80,165 -80,248l0 1897 440 0zm0 -1125l0 -638c0,-38 0,-76 30,-105 34,-32 74,-29 104,-29l710 0c73,0 196,3 273,77 73,73 83,207 83,306 0,86 -6,229 -76,306 -77,83 -190,83 -287,83l-837 0zm2127 1125l440 0 0 -2232 -440 0 0 2232zm2233 0l-1103 -941c-67,-57 -150,-133 -150,-204 0,-47 47,-102 123,-172l1007 -915 -543 0 -884 836c-113,108 -126,207 -126,251 0,58 23,166 160,287l960 858 556 0z"/>
  <polygon class="fil0 str1" points="1476,13279 1983,13279 1983,13983 1476,13983 "/>
  <polygon class="fil0 str1" points="3940,13274 4447,13274 4447,13983 3940,13983 "/>
  <path class="fil1 str2" d="M1935 13389l-188 0 0 335 2591 0 0 -335 -188 0 -749 -1686c-70,-160 -159,-236 -357,-236 -226,0 -300,108 -357,236l-752 1686zm1055 -1447c6,-19 28,-70 54,-70 26,0 41,51 51,70l625 1447 -1355 0 625 -1447zm2062 1782l0 -791 1045 0c131,0 259,-41 341,-108 176,-144 195,-431 195,-612 0,-188 -16,-440 -169,-587 -137,-134 -325,-134 -443,-134l-1062 0c-76,0 -178,13 -251,86 -77,77 -77,166 -77,249l0 1897 421 0zm0 -1126l0 -637c0,-38 0,-77 29,-105 31,-32 70,-29 98,-29l679 0c70,0 188,3 262,77 70,73 79,207 79,306 0,86 -6,229 -73,306 -73,82 -182,82 -274,82l-800 0zm1555 1126l443 0 227 -565 1074 0 229 565 443 0 -841 -2005c-80,-188 -176,-252 -367,-252 -201,0 -287,64 -366,252l-842 2005zm1144 -1773c13,-32 36,-92 64,-92 29,0 51,60 64,92l363 909 -857 0 366 -909zm1502 1773l420 0 0 -2232 -420 0 0 2232zm2135 0l-1055 -941c-64,-57 -143,-134 -143,-204 0,-48 44,-102 118,-172l962 -915 -519 0 -845 835c-108,109 -121,208 -121,252 0,58 22,166 153,287l918 858 532 0zm2352 0l0 -1856c0,-111 -6,-401 -341,-401 -153,0 -252,51 -373,248l-899 1473c-19,32 -35,70 -60,70 -42,0 -38,-51 -38,-102l9 -1664 -421 0 0 1875c0,127 7,382 329,382 226,0 293,-112 354,-210l918 -1482c31,-51 57,-102 82,-102 29,0 32,38 32,73l-12 1696 420 0zm2518 -2232l-421 0 0 915 -1160 0 0 -915 -421 0 0 2232 421 0 0 -982 1160 0 0 982 421 0 0 -2232zm1600 -25c-271,0 -641,0 -889,236 -242,229 -258,602 -258,905 0,252 0,657 258,905 245,236 625,236 889,236 252,0 650,0 889,-236 243,-239 252,-666 252,-905 0,-293 -25,-682 -252,-905 -242,-236 -631,-236 -889,-236zm-714 1141c0,-341 54,-507 144,-618 146,-182 372,-188 567,-188 185,0 427,6 570,188 87,108 141,283 141,618 0,328 -58,510 -141,615 -143,185 -382,191 -570,191 -252,0 -437,-22 -567,-191 -93,-118 -144,-296 -144,-615z"/>
 </g>
</svg>
