<?xml version="1.0" encoding="UTF-8" standalone="no"?>
<svg
   xmlns:dc="http://purl.org/dc/elements/1.1/"
   xmlns:cc="http://creativecommons.org/ns#"
   xmlns:rdf="http://www.w3.org/1999/02/22-rdf-syntax-ns#"
   xmlns:svg="http://www.w3.org/2000/svg"
   xmlns="http://www.w3.org/2000/svg"
   viewBox="0 0 848.70233 1132.0413"
   height="1132.0413"
   width="848.70233"
   id="svg4485"
   version="1.1">
  <metadata
     id="metadata4491">
    <rdf:RDF>
      <cc:Work
         rdf:about="">
        <dc:format>image/svg+xml</dc:format>
        <dc:type
           rdf:resource="http://purl.org/dc/dcmitype/StillImage" />
        <dc:title></dc:title>
      </cc:Work>
    </rdf:RDF>
  </metadata>
  <defs
     id="defs4489" />
  <path
     id="path4495"
     d="m 423.46558,1130.3289 c -0.5429,-1.0355 -21.0383,-25.898 -45.5453,-55.25 C 225.00618,891.93426 116.63338,751.64433 76.676583,685.11543 38.159183,620.98328 9.0366827,530.22457 1.4901827,450.80103 -5.8489173,373.56009 14.182883,285.72139 55.786883,212.71164 120.11678,99.820947 236.57998,21.124927 364.97848,3.7860174 c 30.3398,-4.09707995 71.8439,-4.9693 101.0707,-2.12403 21.7317,2.78601 37.27787,5.76578 52.08403,9.0473496 18.85794,4.17959 34.81236,7.97636 53.84527,15.01328 46.613,17.36236 86.8789,40.78604 126.5,73.58825 13.8532,11.469003 42.0229,39.982993 53.8863,54.544753 37.4908,46.01827 64.2855,96.87411 80.1352,152.09506 4.3162,18.62643 3.0739,12.49504 5.2154,22.67776 1.5109,7.18443 2.6874,9.71373 6.753,32.81601 3.2384,13.68298 5.3406,61.51342 3.6157,82.26719 -6.9478,83.5949 -36.5632,176.81495 -77.7534,244.74379 -40.2368,66.3564 -157.3497,218.05193 -306.284,396.72747 -19.0125,22.8092 -35.4682,42.7139 -36.5682,44.2327 -2.3813,3.288 -2.7267,3.3666 -4.0129,0.9133 z m 41.5129,-354.56177 c 64.4107,-8.3512 120.9134,-31.9202 173,-72.1636 14.2419,-11.0036 44.7071,-41.1757 56.4348,-55.89189 35.0478,-43.97871 59.3578,-96.27419 69.9612,-150.5 12.0989,-65.34257 9.5242,-89.94473 -6.0258,-160.5 -15.5407,-56.40838 -44.8298,-107.24415 -86.353,-149.87918 -28.9192,-29.69354 -58.5774,-51.29796 -95.5172,-69.57925 -46.2496,-22.888623 -92.2244,-34.260303 -144.5,-35.741553 C 296.88938,77.683867 172.56638,151.673 111.49548,272.24275 91.515683,311.688 80.284383,350.1456 75.437183,395.71164 c -2.0601,19.3668 -1.5757,57.89368 0.9745,77.5 7.4455,57.24261 29.030397,112.57686 61.701397,158.17548 59.4767,83.01111 148.5423,134.72411 250.3654,145.36671 17.0417,1.7812 59.362,1.2353 76.5,-0.9867 z m -183,-159.0621 c -0.69451,-164.08296 0.005,-13.48107 0.005,-256.04915 V 207.21164 l 85.75,0.0157 c 147.0291,0.0269 172.6662,1.94623 199.9927,14.97211 13.2155,6.29946 23.6061,13.5339 33.7699,23.51218 28.8639,28.33709 41.9353,65.28328 40.1555,113.5 -0.6421,17.39579 -2.3803,29.32222 -6.1986,42.52982 -10.927,37.79731 -41.0676,70.51128 -78.6424,85.35673 -23.9455,9.46066 -48.6595,11.96163 -126.5771,12.80917 l -53.25,0.57922 v 88.36253 88.36253 h -47.5 -47.5 v -60.50661 z m 182,-197.53473 c 35.3736,-2.49216 50.7453,-8.02242 64.4776,-23.19701 11.2326,-12.4125 16.0225,-26.94564 15.2469,-46.26165 -0.5213,-12.98578 -2.5519,-20.41063 -8.2331,-30.10494 -6.5369,-11.15433 -20.3769,-22.19722 -33.1448,-26.4461 -13.567,-4.51482 -20.9638,-5.07369 -74.5966,-5.63626 l -50.75,-0.53233 v 66.60981 66.60982 l 36.25,-0.01 c 19.9375,-0.005 42.775,-0.46959 50.75,-1.03145 z"
     style="fill:#000000" />
</svg>
