<?xml version="1.0" encoding="utf-8"?>
<!-- Generator: Adobe Illustrator 21.0.2, SVG Export Plug-In . SVG Version: 6.00 Build 0)  -->
<svg version="1.1"
	 id="svg8" xmlns:cc="http://creativecommons.org/ns#" xmlns:dc="http://purl.org/dc/elements/1.1/" xmlns:rdf="http://www.w3.org/1999/02/22-rdf-syntax-ns#" xmlns:svg="http://www.w3.org/2000/svg"
	 xmlns="http://www.w3.org/2000/svg" xmlns:xlink="http://www.w3.org/1999/xlink" x="0px" y="0px" viewBox="0 0 604.8 321.5"
	 style="enable-background:new 0 0 604.8 321.5;" xml:space="preserve">
<g id="layer1" transform="translate(-3.5339581,-44.83516)">
	<path id="path4496" d="M4,363.8c0.2-1.4,6.5-38.6,13.9-82.7c18.9-112.6,23.3-136.8,26.4-146c2.6-7.7,9.5-21.5,14.6-29.1
		C75.9,80.7,99,63,132.4,49.6l9.7-3.9L375,45.2c128.1-0.3,233.1-0.4,233.3-0.3c0.4,0.2-24.6,151.2-30.8,185.6
		c-5.9,32.7-10.3,50-15.6,60.4c-3.6,7.2-13.3,21.2-19.8,28.8c-11.4,13.2-26.5,24.6-44.4,33.6c-12.8,6.4-17.8,8.2-26.1,9.6
		c-16.8,2.7-27.7,2.8-249.5,3.2L3.5,366.3L4,363.8z M174.4,308.4c12.6-0.9,21.4-3.5,30.3-8.9c8-4.8,13-9.2,18-15.9
		c7.3-9.7,11.3-21.7,11.3-34.1c0-17.2-3.6-23-34.5-54.9c-24.2-25-34.3-36-35.6-38.9c-2.8-5.9-0.3-14.7,5.9-20.4
		c5.5-5.1,6.6-5.3,26.5-6.1c30.5-1.2,95.1-0.5,99.4,1.2c0.7,0.3,1.2,1.3,1.2,2.5c0,1.1-2,13.8-4.4,28.2c-2.4,14.4-4.2,26.4-4,26.6
		c0.7,0.7,12,1.2,26.4,1.2l14.6,0l5.1-30.8c7.5-45.2,8.6-53.5,7.6-54.5c-1.7-1.7-16.1-2-77.8-2.1c-95.7,0-102.6,0.6-118.6,11.2
		c-14.9,9.8-24.6,24.2-26.7,39.5c-1.1,7.9,0.1,19.7,2.4,26.1c2.5,6.6,9.2,14.5,39.4,46.2c27.9,29.4,29.4,31.4,28.6,38.3
		c-0.9,7.2-5.7,14.8-10.5,16.4c-4.2,1.4-19.4,2.2-57.2,3.1c-20.2,0.5-36.8,0.9-36.9,1c-0.1,0.1-1,5.3-2.1,11.7
		c-1.1,6.4-2.2,12.2-2.4,12.9c-0.4,1.2,2,1.3,41.5,1.3C145,309.2,168.6,308.8,174.4,308.4L174.4,308.4z M431.4,308.4
		c6.1-0.4,13.3-1.2,16.1-1.9c6.2-1.4,17.5-6.7,22.9-10.7c10-7.4,17.9-18.6,21.7-30.9c1.5-4.7,1.7-7.3,1.7-15.4
		c0-8.7-0.2-10.2-1.9-14.3c-3.8-9-10.6-17.5-32.6-40.5c-17.5-18.3-24.6-26.1-31.3-34.1c-5.5-6.6-5.9-7.3-5.9-10.5
		c0-6.3,4.8-14.2,10.8-17.6c5.4-3.1,10.1-3.5,49.6-3.9c24.1-0.3,38.5-0.7,40.4-1.3c4.7-1.3,5.7-3.4,6.9-14c0.6-5.1,1-9.9,1.1-10.7
		c0-1.4-1.2-1.4-52.5-0.9l-52.5,0.5l-7.8,3.6c-10.1,4.7-15.4,8.2-21.3,13.8c-16.8,16.1-22.6,37.4-15.8,57.7c2.8,8.2,6,12,38.9,45.9
		c13.2,13.6,24.4,25.9,27.9,30.7c2.6,3.6,2.8,7,0.6,12.7c-1.9,5.1-6.5,10.4-10.9,12.5c-5,2.4-16.4,2.9-72.9,2.9l-48.9,0l0-4.3
		c0-2.4,0.9-9.5,1.9-15.9c4.3-26.6,5.8-38.3,5.1-39c-0.4-0.4-8.9-0.7-20.2-0.8l-19.4-0.1l-0.6,2.1c-0.3,1.2-3.6,20.2-7.3,42.4
		c-3.7,22.1-7,40.8-7.2,41.4c-0.4,1.1,6.4,1.2,75.9,1.2C386,309.2,425.3,308.8,431.4,308.4L431.4,308.4z"/>
</g>
</svg>
