<?xml version="1.0" encoding="utf-8"?>
<!-- Generator: Adobe Illustrator 18.0.0, SVG Export Plug-In . SVG Version: 6.00 Build 0)  -->
<!DOCTYPE svg PUBLIC "-//W3C//DTD SVG 1.1//EN" "http://www.w3.org/Graphics/SVG/1.1/DTD/svg11.dtd">
<svg version="1.1"
	 id="svg4561" xmlns:svg="http://www.w3.org/2000/svg" xmlns:sodipodi="http://sodipodi.sourceforge.net/DTD/sodipodi-0.dtd" xmlns:inkscape="http://www.inkscape.org/namespaces/inkscape" xmlns:cc="http://creativecommons.org/ns#" xmlns:rdf="http://www.w3.org/1999/02/22-rdf-syntax-ns#" xmlns:dc="http://purl.org/dc/elements/1.1/" sodipodi:docname="Р РЋР вЂљР В РЎвЂР РЋР С“Р РЋРЎвЂњР В Р вЂ¦Р В РЎвЂўР В РЎвЂќ2.svg" inkscape:version="0.92.1 r15371"
	 xmlns="http://www.w3.org/2000/svg" xmlns:xlink="http://www.w3.org/1999/xlink" x="0px" y="0px" viewBox="0 157.9 591 103"
	 enable-background="new 0 157.9 591 103" xml:space="preserve">
<sodipodi:namedview  pagecolor="#ffffff" borderopacity="1" inkscape:cx="1900.3339" objecttolerance="10" inkscape:cy="332.71914" id="namedview4563" guidetolerance="10" gridtolerance="10" fit-margin-top="0" fit-margin-left="0" bordercolor="#666666" showgrid="false" inkscape:zoom="0.17873942" inkscape:window-y="-8" inkscape:window-x="-8" inkscape:pageopacity="0" fit-margin-right="0" inkscape:window-maximized="1" inkscape:window-width="1920" fit-margin-bottom="0" inkscape:current-layer="svg4561" inkscape:window-height="1017" inkscape:pageshadow="2">
	</sodipodi:namedview>
<g id="layer1" transform="translate(-3.5339581,-44.83516)">
	
		<linearGradient id="path4496_1_" gradientUnits="userSpaceOnUse" x1="288.5102" y1="417.3249" x2="496.5103" y2="-195.6749" gradientTransform="matrix(0.232 0 0 -0.232 -12.3173 301.9376)">
		<stop  offset="0" style="stop-color:#0DFFBA"/>
		<stop  offset="0.4109" style="stop-color:#0068FF"/>
		<stop  offset="0.9827" style="stop-color:#F931FF"/>
	</linearGradient>
	<path id="path4496" inkscape:connector-curvature="0" fill="url(#path4496_1_)" d="M3.6,298c0-0.3,1.5-9,3.2-19.2
		c4.4-26.1,5.4-31.7,6.1-33.9c0.6-1.8,2.2-5,3.4-6.8c3.9-5.8,9.3-10,17-13.1l2.3-0.9l54-0.1c29.7-0.1,54.1-0.1,54.1-0.1
		c0.1,0-5.7,35.1-7.1,43.1c-1.4,7.6-2.4,11.6-3.6,14c-0.8,1.7-3.1,4.9-4.6,6.7c-2.6,3.1-6.1,5.7-10.3,7.8c-3,1.5-4.1,1.9-6.1,2.2
		c-3.9,0.6-6.4,0.6-57.9,0.7l-50.7,0.1L3.6,298z M43.2,285.1c2.9-0.2,5-0.8,7-2.1c1.9-1.1,3-2.1,4.2-3.7c1.7-2.3,2.6-5,2.6-7.9
		c0-4-0.8-5.3-8-12.7c-5.6-5.8-8-8.4-8.3-9c-0.6-1.4-0.1-3.4,1.4-4.7c1.3-1.2,1.5-1.2,6.1-1.4c7.1-0.3,22.1-0.1,23.1,0.3
		c0.2,0.1,0.3,0.3,0.3,0.6c0,0.3-0.5,3.2-1,6.5c-0.6,3.3-1,6.1-0.9,6.2c0.2,0.2,2.8,0.3,6.1,0.3h3.4l1.2-7.1
		c1.7-10.5,2-12.4,1.8-12.6c-0.4-0.4-3.7-0.5-18-0.5c-22.2,0-23.8,0.1-27.5,2.6c-3.5,2.3-5.7,5.6-6.2,9.2c-0.3,1.8,0,4.6,0.6,6.1
		c0.6,1.5,2.1,3.4,9.1,10.7c6.5,6.8,6.8,7.3,6.6,8.9c-0.2,1.7-1.3,3.4-2.4,3.8c-1,0.3-4.5,0.5-13.3,0.7c-4.7,0.1-8.5,0.2-8.6,0.2
		c0,0-0.2,1.2-0.5,2.7c-0.3,1.5-0.5,2.8-0.6,3c-0.1,0.3,0.5,0.3,9.6,0.3C36.3,285.3,41.8,285.2,43.2,285.1L43.2,285.1z M102.8,285.1
		c1.4-0.1,3.1-0.3,3.7-0.4c1.4-0.3,4.1-1.6,5.3-2.5c2.3-1.7,4.2-4.3,5-7.2c0.3-1.1,0.4-1.7,0.4-3.6c0-2,0-2.4-0.4-3.3
		c-0.9-2.1-2.5-4.1-7.6-9.4c-4.1-4.2-5.7-6.1-7.3-7.9c-1.3-1.5-1.4-1.7-1.4-2.4c0-1.5,1.1-3.3,2.5-4.1c1.3-0.7,2.3-0.8,11.5-0.9
		c5.6-0.1,8.9-0.2,9.4-0.3c1.1-0.3,1.3-0.8,1.6-3.2c0.1-1.2,0.2-2.3,0.3-2.5c0-0.3-0.3-0.3-12.2-0.2l-12.2,0.1l-1.8,0.8
		c-2.3,1.1-3.6,1.9-4.9,3.2c-3.9,3.7-5.2,8.7-3.7,13.4c0.6,1.9,1.4,2.8,9,10.6c3.1,3.2,5.7,6,6.5,7.1c0.6,0.8,0.6,1.6,0.1,2.9
		c-0.4,1.2-1.5,2.4-2.5,2.9c-1.2,0.6-3.8,0.7-16.9,0.7H75.9v-1c0-0.6,0.2-2.2,0.4-3.7c1-6.2,1.3-8.9,1.2-9c-0.1-0.1-2.1-0.2-4.7-0.2
		l-4.5,0l-0.1,0.5c-0.1,0.3-0.8,4.7-1.7,9.8c-0.9,5.1-1.6,9.5-1.7,9.6c-0.1,0.3,1.5,0.3,17.6,0.3
		C92.2,285.3,101.4,285.2,102.8,285.1L102.8,285.1z"/>
</g>
<g enable-background="new    ">
	<path fill="#595959" d="M146.1,225.6l5.4-0.5c0.3,2.2,0.8,3.9,1.8,5.3c0.9,1.4,2.4,2.5,4.3,3.4c2,0.9,4.2,1.3,6.6,1.3
		c2.2,0,4.1-0.3,5.8-1c1.7-0.6,2.9-1.5,3.7-2.7c0.8-1.1,1.2-2.4,1.2-3.7c0-1.4-0.4-2.5-1.2-3.5c-0.8-1-2.1-1.9-3.9-2.5
		c-1.2-0.5-3.7-1.2-7.7-2.1c-4-1-6.7-1.9-8.3-2.7c-2.1-1.1-3.6-2.4-4.6-4c-1-1.6-1.5-3.4-1.5-5.4c0-2.2,0.6-4.2,1.9-6.1
		c1.2-1.9,3-3.3,5.4-4.3c2.4-1,5-1.5,7.9-1.5c3.2,0,6,0.5,8.5,1.5c2.4,1,4.3,2.5,5.6,4.6c1.3,2,2,4.3,2.1,6.8l-5.5,0.4
		c-0.3-2.7-1.3-4.8-3-6.2c-1.7-1.4-4.2-2.1-7.5-2.1c-3.5,0-6,0.6-7.6,1.9c-1.6,1.3-2.4,2.8-2.4,4.6c0,1.6,0.6,2.8,1.7,3.8
		c1.1,1,4,2,8.6,3.1c4.6,1.1,7.8,2,9.6,2.8c2.5,1.2,4.4,2.6,5.6,4.4c1.2,1.8,1.8,3.8,1.8,6.1c0,2.3-0.7,4.5-2,6.5
		c-1.3,2-3.2,3.6-5.7,4.7c-2.5,1.1-5.2,1.7-8.3,1.7c-3.9,0-7.2-0.6-9.8-1.7c-2.6-1.1-4.7-2.9-6.2-5.1
		C146.9,231.1,146.1,228.5,146.1,225.6z"/>
	<path fill="#595959" d="M187.3,251.5l-0.6-5c1.2,0.3,2.2,0.5,3,0.5c1.2,0,2.1-0.2,2.8-0.6c0.7-0.4,1.3-0.9,1.7-1.6
		c0.3-0.5,0.9-1.8,1.6-3.9c0.1-0.3,0.3-0.7,0.5-1.3l-11.9-31.3h5.7l6.5,18.1c0.8,2.3,1.6,4.7,2.3,7.2c0.6-2.4,1.3-4.8,2.2-7.1
		l6.7-18.2h5.3L201.3,240c-1.3,3.4-2.3,5.8-3,7.1c-0.9,1.7-2,3-3.2,3.8c-1.2,0.8-2.7,1.2-4.4,1.2
		C189.7,252.2,188.6,251.9,187.3,251.5z"/>
	<path fill="#595959" d="M215.6,230.1l5.2-0.8c0.3,2.1,1.1,3.7,2.5,4.8c1.3,1.1,3.2,1.7,5.6,1.7c2.4,0,4.2-0.5,5.4-1.5
		c1.2-1,1.8-2.2,1.8-3.5c0-1.2-0.5-2.1-1.6-2.8c-0.7-0.5-2.5-1.1-5.4-1.8c-3.9-1-6.6-1.8-8.1-2.5c-1.5-0.7-2.6-1.7-3.4-3
		c-0.8-1.3-1.2-2.7-1.2-4.2c0-1.4,0.3-2.7,1-3.9c0.6-1.2,1.5-2.2,2.6-3c0.8-0.6,1.9-1.1,3.4-1.5c1.4-0.4,3-0.6,4.6-0.6
		c2.5,0,4.6,0.4,6.5,1.1c1.9,0.7,3.2,1.7,4.1,2.9c0.9,1.2,1.5,2.8,1.8,4.8l-5.2,0.7c-0.2-1.6-0.9-2.9-2-3.8
		c-1.1-0.9-2.7-1.4-4.8-1.4c-2.4,0-4.2,0.4-5.2,1.2c-1,0.8-1.6,1.7-1.6,2.8c0,0.7,0.2,1.3,0.6,1.9c0.4,0.6,1.1,1,2,1.4
		c0.5,0.2,2.1,0.6,4.7,1.4c3.8,1,6.4,1.8,7.9,2.5c1.5,0.6,2.6,1.6,3.5,2.8c0.8,1.2,1.3,2.7,1.3,4.5c0,1.8-0.5,3.4-1.5,5
		c-1,1.6-2.5,2.8-4.5,3.6c-1.9,0.9-4.1,1.3-6.6,1.3c-4.1,0-7.2-0.8-9.3-2.5C217.6,235.9,216.2,233.4,215.6,230.1z"/>
	<path fill="#595959" d="M259.5,234.7l0.8,4.7c-1.5,0.3-2.8,0.5-4,0.5c-1.9,0-3.4-0.3-4.5-0.9c-1.1-0.6-1.8-1.4-2.2-2.4
		c-0.4-1-0.6-3.1-0.6-6.3v-18H245v-4.1h3.9v-7.7l5.3-3.2v10.9h5.3v4.1h-5.3v18.3c0,1.5,0.1,2.5,0.3,2.9c0.2,0.4,0.5,0.8,0.9,1
		c0.4,0.3,1,0.4,1.8,0.4C257.7,234.9,258.5,234.9,259.5,234.7z"/>
	<path fill="#595959" d="M286.1,229.4l5.5,0.7c-0.9,3.2-2.5,5.7-4.8,7.5c-2.3,1.8-5.3,2.7-9,2.7c-4.6,0-8.2-1.4-10.9-4.2
		c-2.7-2.8-4-6.8-4-11.9c0-5.3,1.4-9.3,4.1-12.3s6.2-4.4,10.5-4.4c4.2,0,7.6,1.4,10.3,4.3c2.7,2.8,4,6.9,4,12c0,0.3,0,0.8,0,1.4
		h-23.3c0.2,3.4,1.2,6.1,2.9,7.9c1.7,1.8,3.9,2.7,6.5,2.7c1.9,0,3.6-0.5,5-1.5C284.2,233.3,285.3,231.6,286.1,229.4z M268.7,220.8
		h17.5c-0.2-2.6-0.9-4.6-2-5.9c-1.7-2-3.9-3.1-6.6-3.1c-2.4,0-4.5,0.8-6.1,2.4C269.8,215.9,268.8,218.1,268.7,220.8z"/>
	<path fill="#595959" d="M298.2,239.5v-31.3h4.7v4.4c1-1.5,2.3-2.8,3.9-3.7c1.6-0.9,3.5-1.4,5.6-1.4c2.3,0,4.2,0.5,5.7,1.4
		c1.5,1,2.5,2.3,3.1,4c2.5-3.7,5.7-5.5,9.7-5.5c3.1,0,5.5,0.9,7.2,2.6c1.7,1.7,2.5,4.4,2.5,7.9v21.5h-5.3v-19.7
		c0-2.1-0.2-3.6-0.5-4.6c-0.3-0.9-1-1.7-1.9-2.3c-0.9-0.6-2-0.9-3.2-0.9c-2.2,0-4,0.7-5.5,2.2c-1.5,1.5-2.2,3.8-2.2,7v18.2h-5.3
		v-20.3c0-2.4-0.4-4.1-1.3-5.3c-0.9-1.2-2.3-1.8-4.2-1.8c-1.5,0-2.9,0.4-4.1,1.2c-1.3,0.8-2.2,1.9-2.8,3.4c-0.6,1.5-0.9,3.7-0.9,6.5
		v16.2H298.2z"/>
	<path fill="#595959" d="M348.5,202.4v-6.1h5.3v6.1H348.5z M348.5,239.5v-31.3h5.3v31.3H348.5z"/>
	<path fill="#595959" d="M382.3,228l5.2,0.7c-0.6,3.6-2,6.4-4.4,8.4s-5.2,3-8.6,3c-4.3,0-7.7-1.4-10.3-4.2c-2.6-2.8-3.9-6.8-3.9-12
		c0-3.4,0.6-6.3,1.7-8.9c1.1-2.5,2.8-4.4,5.1-5.7c2.3-1.3,4.8-1.9,7.5-1.9c3.4,0,6.2,0.9,8.3,2.6c2.2,1.7,3.5,4.2,4.2,7.3l-5.2,0.8
		c-0.5-2.1-1.4-3.7-2.6-4.7c-1.2-1.1-2.8-1.6-4.5-1.6c-2.7,0-4.8,1-6.5,2.9c-1.7,1.9-2.5,4.9-2.5,9.1c0,4.2,0.8,7.3,2.4,9.2
		c1.6,1.9,3.7,2.9,6.3,2.9c2.1,0,3.8-0.6,5.2-1.9S381.9,230.7,382.3,228z"/>
	<path fill="#595959" d="M413.5,229.4l5.5,0.7c-0.9,3.2-2.5,5.7-4.8,7.5s-5.3,2.7-9,2.7c-4.6,0-8.2-1.4-10.9-4.2
		c-2.7-2.8-4-6.8-4-11.9c0-5.3,1.4-9.3,4.1-12.3s6.2-4.4,10.5-4.4c4.2,0,7.6,1.4,10.3,4.3c2.7,2.8,4,6.9,4,12c0,0.3,0,0.8,0,1.4
		h-23.3c0.2,3.4,1.2,6.1,2.9,7.9c1.7,1.8,3.9,2.7,6.5,2.7c1.9,0,3.6-0.5,5-1.5C411.6,233.3,412.6,231.6,413.5,229.4z M396,220.8
		h17.5c-0.2-2.6-0.9-4.6-2-5.9c-1.7-2-3.9-3.1-6.6-3.1c-2.4,0-4.5,0.8-6.1,2.4C397.1,215.9,396.2,218.1,396,220.8z"/>
	<path fill="#595959" d="M463.8,229.4l5.5,0.7c-0.9,3.2-2.5,5.7-4.8,7.5s-5.3,2.7-9,2.7c-4.6,0-8.2-1.4-10.9-4.2
		c-2.7-2.8-4-6.8-4-11.9c0-5.3,1.4-9.3,4.1-12.3s6.2-4.4,10.5-4.4c4.2,0,7.6,1.4,10.3,4.3c2.7,2.8,4,6.9,4,12c0,0.3,0,0.8,0,1.4
		h-23.3c0.2,3.4,1.2,6.1,2.9,7.9c1.7,1.8,3.9,2.7,6.5,2.7c1.9,0,3.6-0.5,5-1.5C461.9,233.3,463,231.6,463.8,229.4z M446.4,220.8
		h17.5c-0.2-2.6-0.9-4.6-2-5.9c-1.7-2-3.9-3.1-6.6-3.1c-2.4,0-4.5,0.8-6.1,2.4C447.4,215.9,446.5,218.1,446.4,220.8z"/>
	<path fill="#595959" d="M484.6,239.5l-11.9-31.3h5.6l6.7,18.7c0.7,2,1.4,4.1,2,6.3c0.5-1.6,1.1-3.6,2-6l7-19.1h5.4l-11.8,31.3
		H484.6z"/>
	<path fill="#595959" d="M527.5,229.4l5.5,0.7c-0.9,3.2-2.5,5.7-4.8,7.5s-5.3,2.7-9,2.7c-4.6,0-8.2-1.4-10.9-4.2
		c-2.7-2.8-4-6.8-4-11.9c0-5.3,1.4-9.3,4.1-12.3s6.2-4.4,10.5-4.4c4.2,0,7.6,1.4,10.3,4.3c2.7,2.8,4,6.9,4,12c0,0.3,0,0.8,0,1.4
		h-23.3c0.2,3.4,1.2,6.1,2.9,7.9c1.7,1.8,3.9,2.7,6.5,2.7c1.9,0,3.6-0.5,5-1.5C525.6,233.3,526.7,231.6,527.5,229.4z M510.1,220.8
		h17.5c-0.2-2.6-0.9-4.6-2-5.9c-1.7-2-3.9-3.1-6.6-3.1c-2.4,0-4.5,0.8-6.1,2.4C511.2,215.9,510.2,218.1,510.1,220.8z"/>
	<path fill="#595959" d="M539.6,239.5v-31.3h4.8v4.4c2.3-3.4,5.6-5.2,10-5.2c1.9,0,3.6,0.3,5.2,1c1.6,0.7,2.8,1.6,3.5,2.7
		c0.8,1.1,1.3,2.4,1.6,3.9c0.2,1,0.3,2.7,0.3,5.2v19.2h-5.3v-19c0-2.2-0.2-3.8-0.6-4.8s-1.1-1.9-2.2-2.6c-1.1-0.6-2.3-1-3.7-1
		c-2.3,0-4.2,0.7-5.8,2.2c-1.6,1.4-2.5,4.2-2.5,8.2v17.1H539.6z"/>
	<path fill="#595959" d="M584.7,234.7l0.8,4.7c-1.5,0.3-2.8,0.5-4,0.5c-1.9,0-3.4-0.3-4.5-0.9s-1.8-1.4-2.2-2.4
		c-0.4-1-0.6-3.1-0.6-6.3v-18h-3.9v-4.1h3.9v-7.7l5.3-3.2v10.9h5.3v4.1h-5.3v18.3c0,1.5,0.1,2.5,0.3,2.9c0.2,0.4,0.5,0.8,0.9,1
		c0.4,0.3,1,0.4,1.8,0.4C583,234.9,583.8,234.9,584.7,234.7z"/>
</g>
</svg>
