<?xml version="1.0" encoding="UTF-8" standalone="no"?>
<svg
   xmlns:dc="http://purl.org/dc/elements/1.1/"
   xmlns:cc="http://creativecommons.org/ns#"
   xmlns:rdf="http://www.w3.org/1999/02/22-rdf-syntax-ns#"
   xmlns:svg="http://www.w3.org/2000/svg"
   xmlns="http://www.w3.org/2000/svg"
   id="svg8"
   version="1.1"
   viewBox="0 0 864.19379 85.082764"
   height="85.082764mm"
   width="864.19379mm">
  <defs
     id="defs2" />
  <metadata
     id="metadata5">
    <rdf:RDF>
      <cc:Work
         rdf:about="">
        <dc:format>image/svg+xml</dc:format>
        <dc:type
           rdf:resource="http://purl.org/dc/dcmitype/StillImage" />
        <dc:title></dc:title>
      </cc:Work>
    </rdf:RDF>
  </metadata>
  <g
     transform="translate(590.84554,-91.928856)"
     id="layer1">
    <g
       id="svg8-5"
       transform="matrix(0.26458333,0,0,0.26458333,-595.62551,78.322039)">
      <g
         style="fill:#000000"
         id="layer1-1"
         transform="translate(-3.5339581,-44.83516)">
        <path
           style="fill:#000000"
           id="path4496"
           class="st0"
           d="m 22,415.2 c 0.2,-1.4 6.5,-38.6 13.9,-82.7 18.9,-112.6 23.3,-136.8 26.4,-146 2.6,-7.7 9.5,-21.5 14.6,-29.1 17,-25.2 40.1,-42.9 73.5,-56.3 l 9.7,-3.9 232.9,-0.6 c 128.1,-0.3 233.1,-0.4 233.3,-0.3 0.4,0.2 -24.6,151.2 -30.8,185.6 -5.9,32.7 -10.3,50 -15.6,60.4 -3.6,7.2 -13.3,21.2 -19.8,28.8 -11.4,13.2 -26.5,24.6 -44.4,33.6 -12.8,6.4 -17.8,8.2 -26.1,9.6 -16.8,2.7 -27.7,2.8 -249.5,3.2 l -218.5,0.3 z m 170.4,-55.4 c 12.6,-0.9 21.4,-3.5 30.3,-8.9 8,-4.8 13,-9.2 18,-15.9 7.3,-9.7 11.3,-21.7 11.3,-34.1 0,-17.2 -3.6,-23 -34.5,-54.9 -24.2,-25 -34.3,-36 -35.6,-38.9 -2.8,-5.9 -0.3,-14.7 5.9,-20.4 5.5,-5.1 6.6,-5.3 26.5,-6.1 30.5,-1.2 95.1,-0.5 99.4,1.2 0.7,0.3 1.2,1.3 1.2,2.5 0,1.1 -2,13.8 -4.4,28.2 -2.4,14.4 -4.2,26.4 -4,26.6 0.7,0.7 12,1.2 26.4,1.2 h 14.6 l 5.1,-30.8 c 7.5,-45.2 8.6,-53.5 7.6,-54.5 -1.7,-1.7 -16.1,-2 -77.8,-2.1 -95.7,0 -102.6,0.6 -118.6,11.2 -14.9,9.8 -24.6,24.2 -26.7,39.5 -1.1,7.9 0.1,19.7 2.4,26.1 2.5,6.6 9.2,14.5 39.4,46.2 27.9,29.4 29.4,31.4 28.6,38.3 -0.9,7.2 -5.7,14.8 -10.5,16.4 -4.2,1.4 -19.4,2.2 -57.2,3.1 -20.2,0.5 -36.8,0.9 -36.9,1 -0.1,0.1 -1,5.3 -2.1,11.7 -1.1,6.4 -2.2,12.2 -2.4,12.9 -0.4,1.2 2,1.3 41.5,1.3 23.1,0 46.7,-0.4 52.5,-0.8 z m 257,0 c 6.1,-0.4 13.3,-1.2 16.1,-1.9 6.2,-1.4 17.5,-6.7 22.9,-10.7 10,-7.4 17.9,-18.6 21.7,-30.9 1.5,-4.7 1.7,-7.3 1.7,-15.4 0,-8.7 -0.2,-10.2 -1.9,-14.3 -3.8,-9 -10.6,-17.5 -32.6,-40.5 C 459.8,227.8 452.7,220 446,212 c -5.5,-6.6 -5.9,-7.3 -5.9,-10.5 0,-6.3 4.8,-14.2 10.8,-17.6 5.4,-3.1 10.1,-3.5 49.6,-3.9 24.1,-0.3 38.5,-0.7 40.4,-1.3 4.7,-1.3 5.7,-3.4 6.9,-14 0.6,-5.1 1,-9.9 1.1,-10.7 0,-1.4 -1.2,-1.4 -52.5,-0.9 l -52.5,0.5 -7.8,3.6 c -10.1,4.7 -15.4,8.2 -21.3,13.8 -16.8,16.1 -22.6,37.4 -15.8,57.7 2.8,8.2 6,12 38.9,45.9 13.2,13.6 24.4,25.9 27.9,30.7 2.6,3.6 2.8,7 0.6,12.7 -1.9,5.1 -6.5,10.4 -10.9,12.5 -5,2.4 -16.4,2.9 -72.9,2.9 h -48.9 v -4.3 c 0,-2.4 0.9,-9.5 1.9,-15.9 4.3,-26.6 5.8,-38.3 5.1,-39 -0.4,-0.4 -8.9,-0.7 -20.2,-0.8 l -19.4,-0.1 -0.6,2.1 c -0.3,1.2 -3.6,20.2 -7.3,42.4 -3.7,22.1 -7,40.8 -7.2,41.4 -0.4,1.1 6.4,1.2 75.9,1.2 42.1,0.1 81.4,-0.2 87.5,-0.6 z" />
      </g>
      <g
         style="fill:#000000"
         id="g4519">
        <path
           style="fill:#000000"
           class="st0"
           d="m 682.9,254.9 h 12.3 l 3.4,36.1 c 1.7,1.5 3.9,2.9 6.7,4.3 2.8,1.4 6,2.6 9.7,3.7 3.7,1.1 7.7,2 12,2.7 4.4,0.7 9,1 13.8,1 7.7,0 14.4,-0.9 20.3,-2.7 5.8,-1.8 10.7,-4.4 14.7,-7.8 4,-3.4 6.9,-7.5 8.9,-12.3 2,-4.8 3,-10.1 3,-15.9 0,-6.1 -1.3,-11.3 -3.9,-15.7 -2.6,-4.4 -6.1,-8.3 -10.5,-11.7 -4.4,-3.4 -9.6,-6.5 -15.6,-9.2 -6,-2.7 -12.3,-5.6 -19.1,-8.4 -3.7,-1.6 -7.7,-3.3 -11.8,-5.2 -4.1,-1.9 -8.3,-4 -12.3,-6.3 -4.1,-2.4 -8,-5 -11.8,-8 -3.7,-3 -7.1,-6.3 -9.9,-10.1 -2.9,-3.7 -5.2,-7.9 -6.9,-12.5 -1.7,-4.6 -2.5,-9.8 -2.5,-15.5 0,-7.6 1.6,-14.5 4.7,-20.7 3.1,-6.2 7.5,-11.5 13,-15.9 5.5,-4.4 12.1,-7.7 19.8,-10.1 7.7,-2.4 16,-3.6 25.1,-3.6 6,0 11.6,0.4 16.8,1.3 5.2,0.9 9.9,1.9 14.1,3 4.2,1.1 7.9,2.2 11.1,3.2 3.2,1 5.8,1.7 7.8,2 l -1.7,43.9 h -11.8 l -4.4,-34 c -1,-0.8 -2.5,-1.6 -4.6,-2.5 -2.1,-0.9 -4.6,-1.7 -7.5,-2.5 -2.9,-0.7 -6.2,-1.4 -9.8,-1.9 -3.6,-0.5 -7.4,-0.8 -11.3,-0.8 -13.8,0 -24.3,2.8 -31.6,8.3 -7.3,5.5 -11,14 -11,25.5 0,5.9 1.2,11 3.5,15.2 2.3,4.2 5.6,7.9 9.9,11.2 4.2,3.3 9.3,6.3 15.1,9.1 5.8,2.8 12.2,5.9 19.2,9.1 6.7,3.1 13.5,6.4 20.5,9.8 7,3.4 13.3,7.3 18.9,11.7 5.6,4.4 10.2,9.5 13.8,15.4 3.6,5.8 5.4,12.8 5.4,20.9 0,7 -1.6,13.8 -4.7,20.4 -3.1,6.7 -7.6,12.7 -13.5,18 -5.9,5.3 -13.1,9.6 -21.6,12.8 -8.5,3.2 -18.2,4.8 -29,4.8 -7.5,0 -14.4,-0.6 -20.6,-1.8 -6.2,-1.2 -11.9,-2.6 -16.9,-4 -5,-1.5 -9.2,-2.9 -12.7,-4.2 -3.5,-1.3 -6.3,-2 -8.4,-2.2 z"
           id="path4490" />
        <path
           style="fill:#000000"
           class="st0"
           d="m 866.9,301.2 30.2,-1.8 V 235.9 L 834.4,126.6 817.8,123.7 V 113 h 61.5 v 10.6 l -23.5,2.7 41.8,77.1 10.5,22.7 11,-22.7 39.7,-77.1 -22.6,-2.7 V 113 H 993 v 10.6 l -17.5,2.9 -59.1,109 v 63.8 l 30.7,2 V 312 h -80.2 z"
           id="path4492" />
        <path
           style="fill:#000000"
           class="st0"
           d="m 1010.3,254.9 h 12.3 l 3.4,36.1 c 1.7,1.5 3.9,2.9 6.7,4.3 2.8,1.4 6,2.6 9.7,3.7 3.7,1.1 7.7,2 12,2.7 4.4,0.7 9,1 13.8,1 7.7,0 14.4,-0.9 20.3,-2.7 5.8,-1.8 10.7,-4.4 14.7,-7.8 4,-3.4 6.9,-7.5 8.9,-12.3 2,-4.8 3,-10.1 3,-15.9 0,-6.1 -1.3,-11.3 -3.9,-15.7 -2.6,-4.4 -6.1,-8.3 -10.5,-11.7 -4.4,-3.4 -9.6,-6.5 -15.6,-9.2 -6,-2.7 -12.3,-5.6 -19.1,-8.4 -3.7,-1.6 -7.7,-3.3 -11.8,-5.2 -4.1,-1.9 -8.3,-4 -12.3,-6.3 -4.1,-2.4 -8,-5 -11.8,-8 -3.7,-3 -7.1,-6.3 -9.9,-10.1 -2.9,-3.7 -5.2,-7.9 -6.9,-12.5 -1.7,-4.6 -2.5,-9.8 -2.5,-15.5 0,-7.6 1.6,-14.5 4.7,-20.7 3.1,-6.2 7.5,-11.5 13,-15.9 5.5,-4.4 12.1,-7.7 19.8,-10.1 7.7,-2.4 16,-3.6 25.1,-3.6 6,0 11.6,0.4 16.8,1.3 5.2,0.9 9.9,1.9 14.1,3 4.2,1.1 7.9,2.2 11.1,3.2 3.2,1 5.8,1.7 7.8,2 l -1.7,43.9 h -11.8 l -4.4,-34 c -1,-0.8 -2.5,-1.6 -4.6,-2.5 -2.1,-0.9 -4.6,-1.7 -7.5,-2.5 -2.9,-0.7 -6.2,-1.4 -9.8,-1.9 -3.6,-0.5 -7.4,-0.8 -11.3,-0.8 -13.8,0 -24.3,2.8 -31.6,8.3 -7.3,5.5 -11,14 -11,25.5 0,5.9 1.2,11 3.5,15.2 2.3,4.2 5.6,7.9 9.9,11.2 4.2,3.3 9.3,6.3 15.1,9.1 5.8,2.8 12.2,5.9 19.2,9.1 6.7,3.1 13.5,6.4 20.5,9.8 7,3.4 13.3,7.3 18.9,11.7 5.6,4.4 10.2,9.5 13.8,15.4 3.6,5.8 5.4,12.8 5.4,20.9 0,7 -1.6,13.8 -4.7,20.4 -3.1,6.7 -7.6,12.7 -13.5,18 -5.9,5.3 -13.1,9.6 -21.6,12.8 -8.5,3.2 -18.2,4.8 -29,4.8 -7.5,0 -14.4,-0.6 -20.6,-1.8 -6.2,-1.2 -11.9,-2.6 -16.9,-4 -5,-1.5 -9.2,-2.9 -12.7,-4.2 -3.5,-1.3 -6.3,-2 -8.4,-2.2 z"
           id="path4494" />
        <path
           style="fill:#000000"
           class="st0"
           d="m 1191.7,301.2 35.5,-1.7 V 123.9 l -53.8,1.4 -8.1,54.9 h -13.1 l 4.4,-67.2 h 162.1 l 3,67.2 H 1309 l -7.1,-54.9 -54.6,-1.4 v 175.5 l 38.8,1.8 v 10.7 h -94.5 v -10.7 z"
           id="path4497" />
        <path
           style="fill:#000000"
           class="st0"
           d="m 1342,301.2 23.1,-2 V 126.4 l -22.6,-2.7 V 113 h 131.2 l 3.8,38.7 h -11.1 l -6.9,-26.3 -75.1,-0.9 v 79.2 l 51.6,-0.7 3.1,-22.6 h 12 V 239 h -12 l -3.1,-23 -51.6,-0.7 v 84.1 l 85.4,-2.2 13.2,-33.6 11.2,3.8 -8.5,44.4 H 1342 Z"
           id="path4499" />
        <path
           style="fill:#000000"
           class="st0"
           d="m 1502.5,301.2 23.4,-2 22.7,-173 -30.8,-2.6 V 113 h 60 l 46.6,136.3 9.7,37.6 9.8,-37.6 L 1689,113 h 57.1 v 10.6 l -29.3,2.7 24.3,173 24.6,1.8 v 10.7 h -69.1 v -10.7 l 24.8,-1.8 -15.3,-123.3 -7.2,-54.2 -11.8,37.9 L 1636,314 h -7.4 l -49.8,-139.5 -17.2,-52.4 -5.4,53.8 -14.2,123.5 26.7,1.8 v 10.7 h -66.1 v -10.7 z"
           id="path4501" />
        <path
           style="fill:#000000"
           class="st0"
           d="m 1782.8,301.2 26.8,-1.8 v -173 l -26.8,-2.7 V 113 h 72.9 v 10.6 l -26.7,2.6 v 173.1 l 26.7,1.8 v 10.7 h -72.9 z"
           id="path4503" />
        <path
           style="fill:#000000"
           class="st0"
           d="m 1973.3,314.9 c -14.5,0 -27.5,-2.5 -38.7,-7.4 -11.3,-5 -20.8,-12 -28.5,-21 -7.8,-9 -13.6,-19.9 -17.6,-32.6 -4,-12.7 -6,-26.9 -6,-42.5 0,-9.7 1.1,-18.9 3.4,-27.6 2.3,-8.7 5.4,-16.8 9.5,-24.2 4.1,-7.4 9,-14.2 14.8,-20.2 5.8,-6 12.1,-11.1 19.1,-15.4 7,-4.2 14.5,-7.5 22.6,-9.7 8.1,-2.3 16.4,-3.4 25.1,-3.4 6,0 11.9,0.3 17.6,1 5.7,0.7 11.1,1.5 16.1,2.5 5,1 9.4,1.9 13.3,2.8 3.9,0.9 7,1.6 9.3,2.2 l -2.2,42.6 h -12 l -5.1,-31 c -2.5,-2.1 -7.4,-4 -14.7,-5.6 -7.3,-1.7 -16.4,-2.5 -27.5,-2.5 -9.4,0 -18.1,2 -26.2,5.9 -8.1,4 -15,9.6 -21,17 -5.9,7.4 -10.6,16.5 -14,27.2 -3.4,10.7 -5.1,22.8 -5.1,36.2 0,12.4 1.3,24.2 4,35.5 2.7,11.3 6.7,21.2 12.3,29.9 5.5,8.6 12.6,15.5 21.2,20.6 8.6,5.1 18.8,7.7 30.6,7.7 5.8,0 10.8,-0.3 15,-0.8 4.2,-0.5 7.8,-1.2 10.8,-2.1 3,-0.9 5.7,-1.9 7.9,-3.1 2.2,-1.2 4.3,-2.5 6.2,-3.8 l 10.2,-24.8 11.8,1.6 -6.8,34.6 c -3.5,0.2 -6.8,0.8 -10.1,1.9 -3.2,1.1 -6.9,2.3 -10.9,3.5 -4,1.3 -8.8,2.4 -14.3,3.4 -5.5,1.1 -12.2,1.6 -20.1,1.6 z"
           id="path4505" />
        <path
           style="fill:#000000"
           class="st0"
           d="m 2059.7,301.2 23.1,-2 V 126.4 l -22.6,-2.7 V 113 h 131.2 l 3.8,38.7 H 2184 l -6.9,-26.3 -75.1,-0.9 v 79.2 l 51.6,-0.7 3.1,-22.6 h 12 V 239 h -12 l -3.1,-23 -51.6,-0.7 v 84.1 l 85.4,-2.2 13.2,-33.6 11.2,3.8 -8.5,44.4 h -143.7 v -10.6 z"
           id="path4507" />
        <path
           style="fill:#000000"
           class="st0"
           d="m 2320.4,301.2 23.1,-2 V 126.4 l -22.6,-2.7 V 113 h 131.2 l 3.8,38.7 h -11.1 l -6.9,-26.3 -75.1,-0.9 v 79.2 l 51.6,-0.7 3.1,-22.6 h 12 V 239 h -12 l -3.1,-23 -51.6,-0.7 v 84.1 l 85.4,-2.2 13.2,-33.6 11.2,3.8 -8.5,44.4 h -143.7 z"
           id="path4509" />
        <path
           style="fill:#000000"
           class="st0"
           d="M 2492.6,126.4 2476,123.7 V 113 h 62.1 v 10.6 l -25.1,2.6 46.4,130.9 12.1,38.3 11,-39.1 44.4,-130 -21.8,-2.7 V 113 h 54.9 v 10.6 l -17.1,2.7 -66.6,187.7 H 2561 Z"
           id="path4511" />
        <path
           style="fill:#000000"
           class="st0"
           d="m 2669.5,301.2 23.1,-2 V 126.4 L 2670,123.7 V 113 h 131.2 l 3.8,38.7 h -11.1 l -6.9,-26.3 -75.1,-0.9 v 79.2 l 51.6,-0.7 3.1,-22.6 h 12 V 239 h -12 l -3.1,-23 -51.6,-0.7 v 84.1 l 85.4,-2.2 13.2,-33.6 11.2,3.8 -8.5,44.4 h -143.7 z"
           id="path4513" />
        <path
           style="fill:#000000"
           class="st0"
           d="m 2845,301.2 21,-1.8 V 126.5 l -21,-2.9 V 113 h 40.2 l 96.8,140.4 15.8,27.4 V 126.5 l -23.5,-2.9 V 113 h 59.2 v 10.6 l -21.7,2.7 v 185.5 h -11.6 l -97.3,-140.2 -22.7,-35.9 v 163.6 l 24.4,1.8 v 10.7 H 2845 Z"
           id="path4515" />
        <path
           style="fill:#000000"
           class="st0"
           d="m 3086.5,301.2 35.5,-1.7 V 123.9 l -53.8,1.4 -8.1,54.9 H 3047 l 4.4,-67.2 h 162.1 l 3,67.2 h -12.8 l -7.1,-54.9 -54.6,-1.4 v 175.5 l 38.8,1.8 v 10.7 h -94.5 v -10.7 z"
           id="path4517" />
      </g>
      <g
         style="fill:#000000"
         id="g4523" />
      <g
         style="fill:#000000"
         transform="matrix(1.0022257,0,0,1,-0.05586471,0)"
         id="g4529">
        <path
           id="line4527"
           d="m 609.89844,51.800781 v 10 H 3267.0723 V 363 H 25.099609 v 10 H 3274.5 v -0.006 h 2.5723 V 54.746094 h -0.01 v -2.945313 z"
           style="color:#000000;font-style:normal;font-variant:normal;font-weight:normal;font-stretch:normal;font-size:medium;line-height:normal;font-family:sans-serif;font-variant-ligatures:normal;font-variant-position:normal;font-variant-caps:normal;font-variant-numeric:normal;font-variant-alternates:normal;font-feature-settings:normal;text-indent:0;text-align:start;text-decoration:none;text-decoration-line:none;text-decoration-style:solid;text-decoration-color:#000000;letter-spacing:normal;word-spacing:normal;text-transform:none;writing-mode:lr-tb;direction:ltr;text-orientation:mixed;dominant-baseline:auto;baseline-shift:baseline;text-anchor:start;white-space:normal;shape-padding:0;clip-rule:nonzero;display:inline;overflow:visible;visibility:visible;opacity:1;isolation:auto;mix-blend-mode:normal;color-interpolation:sRGB;color-interpolation-filters:linearRGB;solid-color:#000000;solid-opacity:1;vector-effect:none;fill:#000000;fill-opacity:1;fill-rule:nonzero;stroke:none;stroke-width:10;stroke-linecap:butt;stroke-linejoin:miter;stroke-miterlimit:10;stroke-dasharray:none;stroke-dashoffset:0;stroke-opacity:1;color-rendering:auto;image-rendering:auto;shape-rendering:auto;text-rendering:auto;enable-background:accumulate" />
      </g>
    </g>
  </g>
  <style
     type="text/css"
     id="style4485">
	.st0{fill:#6D6D6D;}
	.st1{fill:none;stroke:#6D6D6D;stroke-width:10;stroke-miterlimit:10;}
</style>
</svg>
