<?xml version="1.0" encoding="utf-8"?>
<!-- Generator: Adobe Illustrator 18.0.0, SVG Export Plug-In . SVG Version: 6.00 Build 0)  -->
<!DOCTYPE svg PUBLIC "-//W3C//DTD SVG 1.1//EN" "http://www.w3.org/Graphics/SVG/1.1/DTD/svg11.dtd">
<svg version="1.1" id="Capa_1" xmlns="http://www.w3.org/2000/svg" xmlns:xlink="http://www.w3.org/1999/xlink" x="0px" y="0px"
	 viewBox="0 0 566.9 566.9" enable-background="new 0 0 566.9 566.9" xml:space="preserve">
<path fill="#FFFFFF" d="M453.7,405.3l-90.3-45.1c-8.5-4.3-13.8-12.8-13.8-22.3v-31.9c2.2-2.6,4.4-5.7,6.8-9
	c11.7-16.5,21.1-34.9,27.9-54.8c13.3-6.1,22-19.3,22-34.2v-37.8c0-9.1-3.4-17.9-9.4-24.8V95c0.5-5.2,2.6-36.1-19.8-61.7
	C357.7,11.2,326.2,0,283.5,0s-74.2,11.2-93.6,33.4c-22.4,25.5-20.3,56.5-19.8,61.7v50.3c-6,6.9-9.4,15.7-9.4,24.8v37.8
	c0,11.5,5.2,22.2,14.1,29.4c8.7,34.3,26.8,60.1,33.1,68.4v31.3c0,9.1-5,17.5-13,21.9l-84.3,46c-27.4,15-44.4,43.6-44.4,74.8v30.6
	c0,44.8,142.2,56.7,217.3,56.7s217.3-11.8,217.3-56.7v-28.8C500.8,449,482.7,419.8,453.7,405.3z"/>
</svg>
